<svg xmlns="http://www.w3.org/2000/svg" width="822" height="321" viewBox="0 0 822 321"><defs><clipPath id="a"><path d="M196.95099,0 C238.149488,0 267.458487,31.5209985 267.458487,75.4844964 C267.458487,120.277494 240.084988,151.521993 198.88649,151.521993 C171.512991,151.521993 156.028992,134.931993 152.157992,128.848994 L152.157992,199.63299 L122.019494,199.63299 L122.019494,3.59449983 L150.498992,3.59449983 L150.498992,22.6729989 C154.369992,17.4194992 169.024492,0 196.95099,0 Z M54.7469974,0 C81.843996,0 96.2219954,15.7604992 101.751995,26.8204987 L81.0144961,40.645498 C76.8669963,34.0094984 69.1249967,24.6084988 53.0879974,24.6084988 C42.027998,24.6084988 33.7329984,30.4149985 33.7329984,40.3689981 C33.7329984,68.0189967 104.240495,56.4059973 104.240495,107.281995 C104.240495,134.102494 81.5674961,151.521993 51.9819975,151.521993 C22.6729989,151.521993 7.18899965,135.761493 0,122.765994 L18.8019991,107.834995 C25.4379988,117.512494 35.3919983,126.636994 53.3644974,126.636994 C66.0834968,126.636994 75.4844964,120.277494 75.4844964,108.664495 C75.4844964,81.0144961 5.25349975,90.9684956 5.25349975,40.921998 C5.25349975,15.4839993 26.8204987,0 54.7469974,0 Z M299.292984,3.59449983 L331.366983,52.5349975 L363.440981,3.59449983 L397.72698,3.59449983 L348.509982,73.8254964 L400.76848,147.927493 L367.588481,147.927493 L331.366983,96.2219954 L295.145485,147.927493 L261.965486,147.927493 L314.223984,73.8254964 L265.006986,3.59449983 L299.292984,3.59449983 Z M193.90949,26.8204987 C167.365492,26.8204987 151.051992,48.9404976 151.051992,75.4844964 C151.051992,106.728995 170.130491,124.701494 194.18599,124.701494 C219.347489,124.701494 237.043488,104.516995 237.043488,75.4844964 C237.043488,45.8989978 218.517989,26.8204987 193.90949,26.8204987 Z"/></clipPath><clipPath id="b"><path d="M160.5,0 C288.912633,0 321,32.0873672 321,160.5 C321,288.912633 288.912633,321 160.5,321 C32.0873672,321 0,288.912633 0,160.5 C0,32.0873672 32.0873672,0 160.5,0 Z"/></clipPath><clipPath id="c"><path d="M184.979696,7.02030416 C194.340101,16.3807097 194.340101,31.5569256 184.979696,40.9173311 L129.897,96 L184.979696,151.082669 C194.340101,160.443074 194.340101,175.619291 184.979696,184.979696 C175.619291,194.340101 160.443074,194.340101 151.082669,184.979696 L117.972,151.869 L69.3108864,103.202007 C65.3298598,99.2253314 65.3291786,92.7748252 69.307199,88.7951444 C73.8226118,84.2797888 78.2291592,79.8732947 82.5268413,75.575662 L85.7296906,72.3728491 C88.2049194,69.897648 90.6431037,67.45949 93.0442436,65.0583751 L97.124195,60.9784654 C98.1351107,59.9675597 99.1392223,58.9634579 100.13653,57.96616 L107.006549,51.0962037 C108.293956,49.808808 109.569267,48.5335082 110.832482,47.270304 L113.654302,44.4485061 C114.588105,43.5147107 115.515103,42.5877191 116.435298,41.6675313 L131.423146,26.6797761 C133.390336,24.7125952 135.320482,22.7824573 137.213584,20.8893627 L151.082669,7.02030416 C160.443074,-2.34010139 175.619291,-2.34010139 184.979696,7.02030416 Z M57.2246663,108.084223 L83.9148337,134.774584 C85.9049038,136.764714 85.9049173,139.9913 83.9148638,141.981446 L40.9173311,184.979695 C31.5569256,194.340101 16.3807097,194.340101 7.02030415,184.979695 C-2.34010139,175.61929 -2.34010139,160.443074 7.02030415,151.082669 L37.461613,120.64136 C38.3455882,119.757385 39.2327619,118.870211 40.1231342,117.979839 L50.0179303,108.084513 C52.0078923,106.094251 55.2345011,106.094165 57.2246663,108.084223 Z M40.9173311,7.02030416 L83.9148348,50.0178327 C85.9048892,52.0079701 85.9049065,55.2345473 83.9148736,57.2247061 L57.2283764,83.9117939 C55.2381512,85.9016188 52.0117137,85.901754 50.0213217,83.9120958 L7.02030415,40.9173311 C-2.34010139,31.5569256 -2.34010139,16.3807097 7.02030415,7.02030416 C16.3807097,-2.34010139 31.5569256,-2.34010139 40.9173311,7.02030416 Z"/></clipPath></defs><g clip-path="url(#a)" transform="translate(420.636 83.073)"><polygon points="0 0 400.768 0 400.768 199.633 0 199.633 0 0"/></g><g clip-path="url(#b)"><polygon fill="#00BFA5" points="0 0 321 0 321 321 0 321 0 0"/></g><g clip-path="url(#c)" transform="translate(64 65.75)"><polygon fill="#FFF" points="0 0 192 0 192 192 0 192 0 0"/></g></svg>