<svg width="822" height="321" viewBox="0 0 822 321" xmlns="http://www.w3.org/2000/svg"><g fill="none" fill-rule="evenodd"><path d="M472.617997,234.5945 C502.203496,234.5945 524.876495,217.175001 524.876495,190.354502 C524.876495,139.478504 454.368998,151.091504 454.368998,123.441505 C454.368998,113.487506 462.663998,107.681006 473.723997,107.681006 C489.760996,107.681006 497.502996,117.082006 501.650496,123.718005 L522.387995,109.893006 C516.857995,98.8330064 502.479996,83.0725071 475.382997,83.0725071 C447.456498,83.0725071 425.889499,98.5565064 425.889499,123.994505 C425.889499,174.041003 496.120496,164.087003 496.120496,191.737002 C496.120496,203.350001 486.719496,209.709501 474.000497,209.709501 C456.027998,209.709501 446.073998,200.585001 439.437999,190.907502 L420.636,205.838501 C427.824999,218.834001 443.308999,234.5945 472.617997,234.5945 Z M572.793992,282.705498 L572.793992,211.921501 C576.664992,218.004501 592.148991,234.5945 619.52249,234.5945 C660.720988,234.5945 688.094486,203.350001 688.094486,158.557003 C688.094486,114.593506 658.785488,83.0725071 617.58699,83.0725071 C589.660491,83.0725071 575.005992,100.492006 571.134992,105.745506 L571.134992,86.667007 L542.655493,86.667007 L542.655493,282.705498 L572.793992,282.705498 Z M614.82199,207.774001 C590.766491,207.774001 571.687992,189.801502 571.687992,158.557003 C571.687992,132.013005 588.001491,109.893006 614.54549,109.893006 C639.153989,109.893006 657.679488,128.971505 657.679488,158.557003 C657.679488,187.589502 639.983489,207.774001 614.82199,207.774001 Z M715.781484,231 L752.002983,179.294502 L788.224481,231 L821.404479,231 L769.145982,156.898004 L818.362979,86.667007 L784.076981,86.667007 L752.002983,135.607505 L719.928984,86.667007 L685.642986,86.667007 L734.859983,156.898004 L682.601486,231 L715.781484,231 Z" fill="#000"/><path d="M160.5,0 C32.0873672,0 0,32.0873672 0,160.5 C0,288.912633 32.0873672,321 160.5,321 C288.912633,321 321,288.912633 321,160.5 C321,32.0873672 288.912633,0 160.5,0 Z" fill="#00BFA5"/><path d="M184.979695,7.77030415 C194.340101,17.1307096 194.340101,32.3069256 184.979695,41.6673311 L129.897,96.75 L184.979695,151.832668 C194.340101,161.193074 194.340101,176.369291 184.979695,185.729695 C175.61929,195.090101 160.443074,195.090101 151.082668,185.729695 L117.972,152.619 L69.312008,103.953129 C65.3321778,99.9728165 65.3323931,93.5198999 69.3124896,89.5398539 C102.42313,56.4296334 129.679856,29.1731168 151.082668,7.77030415 C160.443074,-1.59010139 175.61929,-1.59010139 184.979695,7.77030415 Z M57.2246663,108.834416 L83.9148337,135.524584 C85.9049038,137.514714 85.9049173,140.7413 83.9148638,142.731446 L40.9173311,185.729695 L40.9173311,185.729695 C31.5569256,195.090101 16.3807096,195.090101 7.02030415,185.729695 C-2.34010139,176.36929 -2.34010139,161.193074 7.02030415,151.832668 L37.461613,121.39136 C38.3455882,120.507385 39.2327619,119.620211 40.1231342,118.729839 L50.0179303,108.834513 C52.0078923,106.844251 55.2345011,106.844165 57.2246663,108.834223 C57.2246984,108.834255 57.2247306,108.834288 57.2246663,108.834416 Z M40.9173311,7.77030415 L83.9148348,50.7678327 C85.9048892,52.7579701 85.9049065,55.9845473 83.9148736,57.9747061 L57.2283764,84.6617939 C55.2381512,86.6516188 52.0117137,86.651754 50.0213217,84.6620958 L7.02030415,41.6673311 L7.02030415,41.6673311 C-2.34010139,32.3069256 -2.34010139,17.1307096 7.02030415,7.77030415 C16.3807096,-1.59010139 31.5569256,-1.59010139 40.9173311,7.77030415 Z" transform="translate(64 65)" fill="#FFF"/></g></svg>